<mxfile host="app.diagrams.net" modified="2023-02-06T08:19:03.792Z" agent="5.0 (X11)" etag="c5GeXqRVZotXMbwDIMy3" version="20.8.16" type="github">
  <diagram name="Page-1" id="S5g7_EcUh36vyCO9oR4u">
    <mxGraphModel dx="880" dy="459" grid="1" gridSize="10" guides="1" tooltips="1" connect="1" arrows="1" fold="1" page="1" pageScale="1" pageWidth="850" pageHeight="1100" math="0" shadow="0">
      <root>
        <mxCell id="0" />
        <mxCell id="1" parent="0" />
        <mxCell id="T0_lJd_Rtj24KTsAsraD-1" value="&lt;div&gt;DUNCAN&lt;/div&gt;&lt;div&gt;BACK OFFICE&lt;/div&gt;" style="ellipse;shape=cloud;whiteSpace=wrap;html=1;" vertex="1" parent="1">
          <mxGeometry x="30" y="180" width="120" height="80" as="geometry" />
        </mxCell>
        <mxCell id="T0_lJd_Rtj24KTsAsraD-2" value="&lt;div&gt;AINO SVD&lt;/div&gt;" style="ellipse;shape=cloud;whiteSpace=wrap;html=1;" vertex="1" parent="1">
          <mxGeometry x="295" y="175" width="120" height="80" as="geometry" />
        </mxCell>
        <mxCell id="T0_lJd_Rtj24KTsAsraD-9" value="" style="endArrow=classic;html=1;rounded=0;exitX=0.875;exitY=0.5;exitDx=0;exitDy=0;exitPerimeter=0;entryX=0.16;entryY=0.55;entryDx=0;entryDy=0;entryPerimeter=0;dashed=1;dashPattern=1 2;" edge="1" parent="1" source="T0_lJd_Rtj24KTsAsraD-1" target="T0_lJd_Rtj24KTsAsraD-2">
          <mxGeometry width="50" height="50" relative="1" as="geometry">
            <mxPoint x="380" y="380" as="sourcePoint" />
            <mxPoint x="430" y="330" as="targetPoint" />
          </mxGeometry>
        </mxCell>
        <mxCell id="T0_lJd_Rtj24KTsAsraD-11" value="&lt;div&gt;FTP&lt;/div&gt;" style="text;html=1;strokeColor=none;fillColor=none;align=center;verticalAlign=middle;whiteSpace=wrap;rounded=0;" vertex="1" parent="1">
          <mxGeometry x="168" y="196" width="60" height="30" as="geometry" />
        </mxCell>
        <mxCell id="T0_lJd_Rtj24KTsAsraD-13" value="&lt;div&gt;File Consolidation&lt;/div&gt;" style="text;html=1;strokeColor=none;fillColor=none;align=center;verticalAlign=middle;whiteSpace=wrap;rounded=0;" vertex="1" parent="1">
          <mxGeometry x="158" y="216" width="100" height="30" as="geometry" />
        </mxCell>
        <mxCell id="T0_lJd_Rtj24KTsAsraD-31" style="edgeStyle=orthogonalEdgeStyle;rounded=0;orthogonalLoop=1;jettySize=auto;html=1;exitX=0.5;exitY=1;exitDx=0;exitDy=0;entryX=0.5;entryY=0;entryDx=0;entryDy=0;" edge="1" parent="1" source="T0_lJd_Rtj24KTsAsraD-14" target="T0_lJd_Rtj24KTsAsraD-16">
          <mxGeometry relative="1" as="geometry" />
        </mxCell>
        <mxCell id="T0_lJd_Rtj24KTsAsraD-32" style="edgeStyle=orthogonalEdgeStyle;rounded=0;orthogonalLoop=1;jettySize=auto;html=1;exitX=0.5;exitY=1;exitDx=0;exitDy=0;entryX=0.5;entryY=0;entryDx=0;entryDy=0;" edge="1" parent="1" source="T0_lJd_Rtj24KTsAsraD-14" target="T0_lJd_Rtj24KTsAsraD-17">
          <mxGeometry relative="1" as="geometry" />
        </mxCell>
        <mxCell id="T0_lJd_Rtj24KTsAsraD-14" value="&lt;div&gt;DUNCAN&lt;/div&gt;&lt;div&gt;BOARD&lt;/div&gt;" style="whiteSpace=wrap;html=1;aspect=fixed;" vertex="1" parent="1">
          <mxGeometry x="140" y="320" width="80" height="80" as="geometry" />
        </mxCell>
        <mxCell id="T0_lJd_Rtj24KTsAsraD-43" style="edgeStyle=orthogonalEdgeStyle;rounded=0;orthogonalLoop=1;jettySize=auto;html=1;exitX=1;exitY=0.5;exitDx=0;exitDy=0;entryX=0;entryY=0.5;entryDx=0;entryDy=0;" edge="1" parent="1" source="T0_lJd_Rtj24KTsAsraD-15" target="T0_lJd_Rtj24KTsAsraD-42">
          <mxGeometry relative="1" as="geometry" />
        </mxCell>
        <mxCell id="T0_lJd_Rtj24KTsAsraD-47" style="edgeStyle=orthogonalEdgeStyle;rounded=0;orthogonalLoop=1;jettySize=auto;html=1;exitX=0.5;exitY=1;exitDx=0;exitDy=0;entryX=0.5;entryY=0;entryDx=0;entryDy=0;" edge="1" parent="1" source="T0_lJd_Rtj24KTsAsraD-15" target="T0_lJd_Rtj24KTsAsraD-41">
          <mxGeometry relative="1" as="geometry" />
        </mxCell>
        <mxCell id="T0_lJd_Rtj24KTsAsraD-15" value="&lt;div&gt;COHERN&lt;/div&gt;&lt;div&gt;BOARD&lt;/div&gt;" style="whiteSpace=wrap;html=1;aspect=fixed;" vertex="1" parent="1">
          <mxGeometry x="530" y="320" width="80" height="80" as="geometry" />
        </mxCell>
        <mxCell id="T0_lJd_Rtj24KTsAsraD-16" value="DUNCAN&lt;br&gt;APP" style="ellipse;whiteSpace=wrap;html=1;" vertex="1" parent="1">
          <mxGeometry x="10" y="470" width="120" height="80" as="geometry" />
        </mxCell>
        <mxCell id="T0_lJd_Rtj24KTsAsraD-23" style="edgeStyle=orthogonalEdgeStyle;rounded=0;orthogonalLoop=1;jettySize=auto;html=1;exitX=0.5;exitY=1;exitDx=0;exitDy=0;" edge="1" parent="1" source="T0_lJd_Rtj24KTsAsraD-17" target="T0_lJd_Rtj24KTsAsraD-18">
          <mxGeometry relative="1" as="geometry" />
        </mxCell>
        <mxCell id="T0_lJd_Rtj24KTsAsraD-25" style="edgeStyle=orthogonalEdgeStyle;rounded=0;orthogonalLoop=1;jettySize=auto;html=1;exitX=0.5;exitY=1;exitDx=0;exitDy=0;" edge="1" parent="1" source="T0_lJd_Rtj24KTsAsraD-17" target="T0_lJd_Rtj24KTsAsraD-20">
          <mxGeometry relative="1" as="geometry" />
        </mxCell>
        <mxCell id="T0_lJd_Rtj24KTsAsraD-61" style="edgeStyle=orthogonalEdgeStyle;rounded=0;orthogonalLoop=1;jettySize=auto;html=1;exitX=0.5;exitY=1;exitDx=0;exitDy=0;" edge="1" parent="1" source="T0_lJd_Rtj24KTsAsraD-17" target="T0_lJd_Rtj24KTsAsraD-21">
          <mxGeometry relative="1" as="geometry" />
        </mxCell>
        <mxCell id="T0_lJd_Rtj24KTsAsraD-17" value="&lt;div&gt;AINO APP&lt;/div&gt;" style="ellipse;whiteSpace=wrap;html=1;" vertex="1" parent="1">
          <mxGeometry x="240" y="470" width="120" height="80" as="geometry" />
        </mxCell>
        <mxCell id="T0_lJd_Rtj24KTsAsraD-18" value="&lt;div&gt;LOCAL DB&lt;/div&gt;" style="shape=datastore;whiteSpace=wrap;html=1;" vertex="1" parent="1">
          <mxGeometry x="220" y="600" width="60" height="60" as="geometry" />
        </mxCell>
        <mxCell id="T0_lJd_Rtj24KTsAsraD-20" value="Business Flow" style="rounded=1;whiteSpace=wrap;html=1;" vertex="1" parent="1">
          <mxGeometry x="310" y="600" width="90" height="50" as="geometry" />
        </mxCell>
        <mxCell id="T0_lJd_Rtj24KTsAsraD-21" value="&lt;div&gt;Process&lt;/div&gt;&lt;div&gt;Logging&lt;br&gt;&lt;/div&gt;" style="rounded=1;whiteSpace=wrap;html=1;" vertex="1" parent="1">
          <mxGeometry x="425" y="600" width="90" height="50" as="geometry" />
        </mxCell>
        <mxCell id="T0_lJd_Rtj24KTsAsraD-29" value="" style="shape=flexArrow;endArrow=classic;startArrow=classic;html=1;rounded=0;exitX=1;exitY=0.5;exitDx=0;exitDy=0;" edge="1" parent="1" source="T0_lJd_Rtj24KTsAsraD-16">
          <mxGeometry width="100" height="100" relative="1" as="geometry">
            <mxPoint x="370" y="630" as="sourcePoint" />
            <mxPoint x="250" y="510" as="targetPoint" />
          </mxGeometry>
        </mxCell>
        <mxCell id="T0_lJd_Rtj24KTsAsraD-30" value="Virtual Socket Communication" style="text;html=1;strokeColor=none;fillColor=none;align=center;verticalAlign=middle;whiteSpace=wrap;rounded=0;" vertex="1" parent="1">
          <mxGeometry x="160" y="470" width="70" height="30" as="geometry" />
        </mxCell>
        <mxCell id="T0_lJd_Rtj24KTsAsraD-33" value="" style="shape=flexArrow;endArrow=classic;startArrow=classic;html=1;rounded=0;dashed=1;dashPattern=12 12;entryX=0.55;entryY=0.95;entryDx=0;entryDy=0;entryPerimeter=0;exitX=0.725;exitY=0.05;exitDx=0;exitDy=0;exitPerimeter=0;" edge="1" parent="1" source="T0_lJd_Rtj24KTsAsraD-17" target="T0_lJd_Rtj24KTsAsraD-2">
          <mxGeometry width="100" height="100" relative="1" as="geometry">
            <mxPoint x="340" y="460" as="sourcePoint" />
            <mxPoint x="380" y="250" as="targetPoint" />
          </mxGeometry>
        </mxCell>
        <mxCell id="T0_lJd_Rtj24KTsAsraD-37" value="&lt;div&gt;Internet&lt;/div&gt;" style="edgeLabel;html=1;align=center;verticalAlign=middle;resizable=0;points=[];rotation=-75;" vertex="1" connectable="0" parent="T0_lJd_Rtj24KTsAsraD-33">
          <mxGeometry x="0.1558" y="-2" relative="1" as="geometry">
            <mxPoint x="3" y="-6" as="offset" />
          </mxGeometry>
        </mxCell>
        <mxCell id="T0_lJd_Rtj24KTsAsraD-38" value="" style="shape=flexArrow;endArrow=classic;startArrow=classic;html=1;rounded=0;exitX=1;exitY=0.5;exitDx=0;exitDy=0;entryX=0;entryY=0.5;entryDx=0;entryDy=0;" edge="1" parent="1" source="T0_lJd_Rtj24KTsAsraD-14" target="T0_lJd_Rtj24KTsAsraD-15">
          <mxGeometry width="100" height="100" relative="1" as="geometry">
            <mxPoint x="370" y="450" as="sourcePoint" />
            <mxPoint x="470" y="350" as="targetPoint" />
          </mxGeometry>
        </mxCell>
        <mxCell id="T0_lJd_Rtj24KTsAsraD-40" value="&lt;div&gt;Serial&lt;/div&gt;&amp;nbsp;Comunication" style="edgeLabel;html=1;align=center;verticalAlign=middle;resizable=0;points=[];" vertex="1" connectable="0" parent="T0_lJd_Rtj24KTsAsraD-38">
          <mxGeometry x="0.2258" y="-2" relative="1" as="geometry">
            <mxPoint x="-10" y="8" as="offset" />
          </mxGeometry>
        </mxCell>
        <mxCell id="T0_lJd_Rtj24KTsAsraD-54" style="edgeStyle=orthogonalEdgeStyle;rounded=0;orthogonalLoop=1;jettySize=auto;html=1;exitX=1;exitY=0.5;exitDx=0;exitDy=0;" edge="1" parent="1" source="T0_lJd_Rtj24KTsAsraD-41" target="T0_lJd_Rtj24KTsAsraD-44">
          <mxGeometry relative="1" as="geometry" />
        </mxCell>
        <mxCell id="T0_lJd_Rtj24KTsAsraD-55" style="edgeStyle=orthogonalEdgeStyle;rounded=0;orthogonalLoop=1;jettySize=auto;html=1;exitX=1;exitY=0.5;exitDx=0;exitDy=0;entryX=0;entryY=0.5;entryDx=0;entryDy=0;" edge="1" parent="1" source="T0_lJd_Rtj24KTsAsraD-41" target="T0_lJd_Rtj24KTsAsraD-45">
          <mxGeometry relative="1" as="geometry" />
        </mxCell>
        <mxCell id="T0_lJd_Rtj24KTsAsraD-56" style="edgeStyle=orthogonalEdgeStyle;rounded=0;orthogonalLoop=1;jettySize=auto;html=1;exitX=1;exitY=0.5;exitDx=0;exitDy=0;entryX=0;entryY=0.5;entryDx=0;entryDy=0;" edge="1" parent="1" source="T0_lJd_Rtj24KTsAsraD-41" target="T0_lJd_Rtj24KTsAsraD-46">
          <mxGeometry relative="1" as="geometry" />
        </mxCell>
        <mxCell id="T0_lJd_Rtj24KTsAsraD-57" style="edgeStyle=orthogonalEdgeStyle;rounded=0;orthogonalLoop=1;jettySize=auto;html=1;exitX=1;exitY=0.5;exitDx=0;exitDy=0;entryX=0;entryY=0.5;entryDx=0;entryDy=0;" edge="1" parent="1" source="T0_lJd_Rtj24KTsAsraD-41" target="T0_lJd_Rtj24KTsAsraD-48">
          <mxGeometry relative="1" as="geometry" />
        </mxCell>
        <mxCell id="T0_lJd_Rtj24KTsAsraD-58" style="edgeStyle=orthogonalEdgeStyle;rounded=0;orthogonalLoop=1;jettySize=auto;html=1;exitX=1;exitY=0.5;exitDx=0;exitDy=0;entryX=0;entryY=0.5;entryDx=0;entryDy=0;" edge="1" parent="1" source="T0_lJd_Rtj24KTsAsraD-41" target="T0_lJd_Rtj24KTsAsraD-50">
          <mxGeometry relative="1" as="geometry" />
        </mxCell>
        <mxCell id="T0_lJd_Rtj24KTsAsraD-41" value="&lt;div&gt;Aino Payment&lt;/div&gt;&lt;div&gt;Module&lt;br&gt;&lt;/div&gt;" style="rounded=1;whiteSpace=wrap;html=1;" vertex="1" parent="1">
          <mxGeometry x="525" y="450" width="90" height="50" as="geometry" />
        </mxCell>
        <mxCell id="T0_lJd_Rtj24KTsAsraD-42" value="&lt;div&gt;Reader Lib&lt;/div&gt;" style="rounded=1;whiteSpace=wrap;html=1;" vertex="1" parent="1">
          <mxGeometry x="680" y="341.25" width="80" height="37.5" as="geometry" />
        </mxCell>
        <mxCell id="T0_lJd_Rtj24KTsAsraD-44" value="Mandiri Lib" style="rounded=1;whiteSpace=wrap;html=1;" vertex="1" parent="1">
          <mxGeometry x="680" y="456" width="80" height="37.5" as="geometry" />
        </mxCell>
        <mxCell id="T0_lJd_Rtj24KTsAsraD-45" value="BCA Lib" style="rounded=1;whiteSpace=wrap;html=1;" vertex="1" parent="1">
          <mxGeometry x="680" y="506" width="80" height="37.5" as="geometry" />
        </mxCell>
        <mxCell id="T0_lJd_Rtj24KTsAsraD-46" value="BRI Lib" style="rounded=1;whiteSpace=wrap;html=1;" vertex="1" parent="1">
          <mxGeometry x="680" y="556" width="80" height="37.5" as="geometry" />
        </mxCell>
        <mxCell id="T0_lJd_Rtj24KTsAsraD-48" value="BNI Lib" style="rounded=1;whiteSpace=wrap;html=1;" vertex="1" parent="1">
          <mxGeometry x="680" y="606" width="80" height="37.5" as="geometry" />
        </mxCell>
        <mxCell id="T0_lJd_Rtj24KTsAsraD-50" value="&lt;div&gt;.........&lt;/div&gt;" style="rounded=1;whiteSpace=wrap;html=1;" vertex="1" parent="1">
          <mxGeometry x="680" y="656" width="80" height="37.5" as="geometry" />
        </mxCell>
        <mxCell id="T0_lJd_Rtj24KTsAsraD-62" value="" style="shape=flexArrow;endArrow=classic;startArrow=classic;html=1;rounded=0;dashed=1;dashPattern=12 12;entryX=0.55;entryY=0.95;entryDx=0;entryDy=0;entryPerimeter=0;exitX=0.5;exitY=0;exitDx=0;exitDy=0;" edge="1" parent="1" source="T0_lJd_Rtj24KTsAsraD-16" target="T0_lJd_Rtj24KTsAsraD-1">
          <mxGeometry width="100" height="100" relative="1" as="geometry">
            <mxPoint x="29.996187565620687" y="480.6720467284845" as="sourcePoint" />
            <mxPoint x="128.82999999999998" y="260" as="targetPoint" />
          </mxGeometry>
        </mxCell>
        <mxCell id="T0_lJd_Rtj24KTsAsraD-63" value="&lt;div&gt;Internet&lt;/div&gt;" style="edgeLabel;html=1;align=center;verticalAlign=middle;resizable=0;points=[];rotation=-75;" vertex="1" connectable="0" parent="T0_lJd_Rtj24KTsAsraD-62">
          <mxGeometry x="0.1558" y="-2" relative="1" as="geometry">
            <mxPoint x="3" y="-6" as="offset" />
          </mxGeometry>
        </mxCell>
        <mxCell id="T0_lJd_Rtj24KTsAsraD-64" value="BANK" style="ellipse;shape=cloud;whiteSpace=wrap;html=1;" vertex="1" parent="1">
          <mxGeometry x="525" y="171" width="120" height="80" as="geometry" />
        </mxCell>
        <mxCell id="T0_lJd_Rtj24KTsAsraD-65" value="" style="shape=flexArrow;endArrow=classic;startArrow=classic;html=1;rounded=0;entryX=0.16;entryY=0.55;entryDx=0;entryDy=0;entryPerimeter=0;exitX=0.875;exitY=0.5;exitDx=0;exitDy=0;exitPerimeter=0;" edge="1" parent="1" source="T0_lJd_Rtj24KTsAsraD-2" target="T0_lJd_Rtj24KTsAsraD-64">
          <mxGeometry width="100" height="100" relative="1" as="geometry">
            <mxPoint x="337" y="484" as="sourcePoint" />
            <mxPoint x="371" y="261" as="targetPoint" />
          </mxGeometry>
        </mxCell>
        <mxCell id="T0_lJd_Rtj24KTsAsraD-67" value="&lt;div&gt;File Settlement&lt;br&gt;&lt;/div&gt;" style="text;html=1;strokeColor=none;fillColor=none;align=center;verticalAlign=middle;whiteSpace=wrap;rounded=0;" vertex="1" parent="1">
          <mxGeometry x="420" y="216" width="100" height="30" as="geometry" />
        </mxCell>
      </root>
    </mxGraphModel>
  </diagram>
</mxfile>
